<?xml version="1.0" encoding="UTF-8" standalone="no"?>
<!-- Created with Inkscape (http://www.inkscape.org/) -->

<svg
   xmlns:dc="http://purl.org/dc/elements/1.1/"
   xmlns:cc="http://creativecommons.org/ns#"
   xmlns:rdf="http://www.w3.org/1999/02/22-rdf-syntax-ns#"
   xmlns:svg="http://www.w3.org/2000/svg"
   xmlns="http://www.w3.org/2000/svg"
   xmlns:sodipodi="http://sodipodi.sourceforge.net/DTD/sodipodi-0.dtd"
   xmlns:inkscape="http://www.inkscape.org/namespaces/inkscape"
   width="200mm"
   height="50mm"
   viewBox="0 0 708.66142 177.16536"
   id="svg2"
   version="1.1"
   inkscape:version="0.91 r13725"
   sodipodi:docname="csgoreef.svg">
  <defs
     id="defs4" />
  <sodipodi:namedview
     id="base"
     pagecolor="#ffffff"
     bordercolor="#666666"
     borderopacity="1.0"
     inkscape:pageopacity="0.0"
     inkscape:pageshadow="2"
     inkscape:zoom="0.7"
     inkscape:cx="181.44817"
     inkscape:cy="296.3042"
     inkscape:document-units="px"
     inkscape:current-layer="layer1"
     showgrid="false"
     inkscape:window-width="1440"
     inkscape:window-height="837"
     inkscape:window-x="-8"
     inkscape:window-y="-8"
     inkscape:window-maximized="1"
     showguides="true"
     inkscape:guide-bbox="true" />
  <metadata
     id="metadata7">
    <rdf:RDF>
      <cc:Work
         rdf:about="">
        <dc:format>image/svg+xml</dc:format>
        <dc:type
           rdf:resource="http://purl.org/dc/dcmitype/StillImage" />
        <dc:title />
      </cc:Work>
    </rdf:RDF>
  </metadata>
  <g
     inkscape:label="Layer 1"
     inkscape:groupmode="layer"
     id="layer1"
     transform="translate(0,-875.19685)">
    <g
       id="g4486"
       transform="matrix(8.8533438,0,0,8.8533438,-3029.4672,-5310.6818)">
      <g
         style="stroke:#ffdd55;stroke-opacity:1"
         transform="matrix(0.44478737,0,0,0.44478737,181.71887,401.3549)"
         id="g4409">
        <path
           style="fill:#ffffff;fill-opacity:1;fill-rule:evenodd;stroke:#ffff55;stroke-width:0;stroke-linecap:butt;stroke-linejoin:miter;stroke-miterlimit:4;stroke-dasharray:none;stroke-opacity:1"
           d="m 380.18344,690.62516 c 7.40971,-2.51388 11.44572,-5.98605 13.76135,-11.52112 18.9438,14.38982 3.46793,21.48856 -1.20668,24.40955 -0.67174,-5.56141 -7.0236,-10.0404 -12.55467,-12.88843 z"
           id="path4399"
           inkscape:connector-curvature="0"
           sodipodi:nodetypes="cccc" />
        <path
           style="fill:none;fill-rule:evenodd;stroke:#ff3e48;stroke-width:6.66198158;stroke-linecap:butt;stroke-linejoin:miter;stroke-miterlimit:4;stroke-dasharray:none;stroke-opacity:1"
           d="m 384.38144,678.46418 c 22.87684,-5.38203 24.15717,30.13206 0.10984,26.85669"
           id="path4365"
           inkscape:connector-curvature="0"
           sodipodi:nodetypes="cc" />
        <path
           style="fill:none;fill-rule:evenodd;stroke:#ff3e48;stroke-width:5.78715038;stroke-linecap:butt;stroke-linejoin:miter;stroke-miterlimit:4;stroke-dasharray:none;stroke-opacity:1"
           d="m 371.72264,683.02245 c 7.80249,2.71138 8.22675,12.23604 -0.81055,14.44282"
           id="path4405"
           inkscape:connector-curvature="0"
           sodipodi:nodetypes="cc" />
      </g>
      <g
         transform="matrix(0.33959692,0,0,0.33959692,250.66395,470.78304)"
         id="text4448"
         style="font-style:normal;font-weight:normal;font-size:40px;line-height:125%;font-family:sans-serif;letter-spacing:0px;word-spacing:0px;fill:#000000;fill-opacity:1;stroke:none;stroke-width:1px;stroke-linecap:butt;stroke-linejoin:miter;stroke-opacity:1">
        <path
           inkscape:connector-curvature="0"
           id="path4470"
           style="font-style:normal;font-variant:normal;font-weight:normal;font-stretch:normal;font-family:'Product Sans';-inkscape-font-specification:'Product Sans';fill:#ffffff;fill-opacity:1"
           d="m 348.34285,712.64507 q -4.36,0 -7.24,-2.96 -2.84,-3.04 -2.84,-7.48 0,-4.52 2.84,-7.48 2.88,-2.96 7.24,-2.96 3,0 5.24,1.52 2.24,1.48 3.36,4.12 l -3.36,1.4 q -1.56,-3.68 -5.48,-3.68 -2.52,0 -4.36,2.04 -1.8,2.04 -1.8,5.04 0,3 1.8,5.04 1.84,2.04 4.36,2.04 4.04,0 5.68,-3.68 l 3.28,1.4 q -1.08,2.64 -3.4,4.16 -2.28,1.48 -5.32,1.48 z" />
        <path
           inkscape:connector-curvature="0"
           id="path4472"
           style="font-style:normal;font-variant:normal;font-weight:normal;font-stretch:normal;font-family:'Product Sans';-inkscape-font-specification:'Product Sans';fill:#ffffff;fill-opacity:1"
           d="m 375.24223,706.56507 q 0,2.56 -2.24,4.32 -2.24,1.76 -5.64,1.76 -2.96,0 -5.2,-1.52 -2.24,-1.56 -3.2,-4.08 l 3.28,-1.4 q 0.72,1.76 2.08,2.76 1.4,0.96 3.04,0.96 1.76,0 2.92,-0.76 1.2,-0.76 1.2,-1.8 0,-1.88 -2.88,-2.76 l -3.36,-0.84 q -5.72,-1.44 -5.72,-5.52 0,-2.68 2.16,-4.28 2.2,-1.64 5.6,-1.64 2.6,0 4.68,1.24 2.12,1.24 2.96,3.32 l -3.28,1.36 q -0.56,-1.24 -1.84,-1.92 -1.24,-0.72 -2.8,-0.72 -1.44,0 -2.6,0.72 -1.12,0.72 -1.12,1.76 0,1.68 3.16,2.4 l 2.96,0.76 q 5.84,1.44 5.84,5.88 z" />
        <path
           inkscape:connector-curvature="0"
           id="path4474"
           style="font-style:normal;font-variant:normal;font-weight:normal;font-stretch:normal;font-family:'Product Sans';-inkscape-font-specification:'Product Sans';fill:#ffffff;fill-opacity:1"
           d="m 387.47973,709.28507 q 2.72,0 4.44,-1.96 1.8,-1.96 1.8,-5.12 0,-3.08 -1.8,-5.08 -1.76,-2 -4.44,-2 -2.64,0 -4.44,2 -1.8,2 -1.8,5.08 0,3.12 1.8,5.08 1.8,2 4.44,2 z m -0.12,12 q -1.64,0 -3.08,-0.44 -1.44,-0.4 -2.64,-1.16 -1.16,-0.76 -2,-1.8 -0.84,-1.04 -1.28,-2.32 l 3.48,-1.44 q 0.6,1.72 2.08,2.76 1.48,1.04 3.44,1.04 3,0 4.68,-1.8 1.68,-1.8 1.68,-4.96 l 0,-1.88 -0.16,0 q -1.04,1.56 -2.84,2.48 -1.76,0.88 -3.84,0.88 -3.84,0 -6.6,-3 -2.72,-3.08 -2.72,-7.44 0,-4.36 2.72,-7.4 2.76,-3.04 6.6,-3.04 2.08,0 3.84,0.92 1.8,0.88 2.84,2.44 l 0.16,0 0,-2.72 3.52,0 0,18.76 q 0,4.72 -2.68,7.4 -2.72,2.72 -7.2,2.72 z" />
        <path
           inkscape:connector-curvature="0"
           id="path4476"
           style="font-style:normal;font-variant:normal;font-weight:normal;font-stretch:normal;font-family:'Product Sans';-inkscape-font-specification:'Product Sans';fill:#ffffff;fill-opacity:1"
           d="m 400.37223,702.20507 q 0,-4.52 2.84,-7.48 2.88,-2.96 7.24,-2.96 4.36,0 7.2,2.96 2.88,2.96 2.88,7.48 0,4.56 -2.88,7.48 -2.84,2.96 -7.2,2.96 -4.36,0 -7.24,-2.96 -2.84,-2.96 -2.84,-7.48 z m 3.68,0 q 0,3.16 1.84,5.12 1.84,1.96 4.56,1.96 2.72,0 4.56,-1.96 1.84,-1.96 1.84,-5.12 0,-3.12 -1.84,-5.08 -1.88,-2 -4.56,-2 -2.68,0 -4.56,2 -1.84,1.96 -1.84,5.08 z" />
        <path
           inkscape:connector-curvature="0"
           id="path4478"
           style="font-style:normal;font-variant:normal;font-weight:normal;font-stretch:normal;font-family:'Product Sans';-inkscape-font-specification:'Product Sans';fill:#ff3e48;fill-opacity:1"
           d="m 427.20348,712.00507 -3.68,0 0,-19.6 3.52,0 0,3.2 0.16,0 q 0.56,-1.56 2.28,-2.64 1.76,-1.12 3.44,-1.12 1.6,0 2.72,0.48 l -1.12,3.56 q -0.68,-0.28 -2.16,-0.28 -2.08,0 -3.64,1.68 -1.52,1.68 -1.52,3.92 l 0,10.8 z" />
        <path
           inkscape:connector-curvature="0"
           id="path4480"
           style="font-style:normal;font-variant:normal;font-weight:normal;font-stretch:normal;font-family:'Product Sans';-inkscape-font-specification:'Product Sans';fill:#ff3e48;fill-opacity:1"
           d="m 445.68285,712.64507 q -4.32,0 -7.12,-2.96 -2.8,-2.96 -2.8,-7.48 0,-4.48 2.72,-7.44 2.72,-3 6.96,-3 4.36,0 6.92,2.84 2.6,2.8 2.6,7.88 l -0.04,0.4 -15.4,0 q 0.08,2.88 1.92,4.64 1.84,1.76 4.4,1.76 3.52,0 5.52,-3.52 l 3.28,1.6 q -1.32,2.48 -3.68,3.88 -2.32,1.4 -5.28,1.4 z m -5.88,-12.8 11.24,0 q -0.16,-2.04 -1.68,-3.36 -1.48,-1.36 -4,-1.36 -2.08,0 -3.6,1.28 -1.48,1.28 -1.96,3.44 z" />
        <path
           inkscape:connector-curvature="0"
           id="path4482"
           style="font-style:normal;font-variant:normal;font-weight:normal;font-stretch:normal;font-family:'Product Sans';-inkscape-font-specification:'Product Sans';fill:#ff3e48;fill-opacity:1"
           d="m 467.32348,712.64507 q -4.32,0 -7.12,-2.96 -2.8,-2.96 -2.8,-7.48 0,-4.48 2.72,-7.44 2.72,-3 6.96,-3 4.36,0 6.92,2.84 2.6,2.8 2.6,7.88 l -0.04,0.4 -15.4,0 q 0.08,2.88 1.92,4.64 1.84,1.76 4.4,1.76 3.52,0 5.52,-3.52 l 3.28,1.6 q -1.32,2.48 -3.68,3.88 -2.32,1.4 -5.28,1.4 z m -5.88,-12.8 11.24,0 q -0.16,-2.04 -1.68,-3.36 -1.48,-1.36 -4,-1.36 -2.08,0 -3.6,1.28 -1.48,1.28 -1.96,3.44 z" />
        <path
           inkscape:connector-curvature="0"
           id="path4484"
           style="font-style:normal;font-variant:normal;font-weight:normal;font-stretch:normal;font-family:'Product Sans';-inkscape-font-specification:'Product Sans';fill:#ff3e48;fill-opacity:1"
           d="m 488.5791,683.04507 q 2,0 3.28,0.68 l -1,3.24 q -0.96,-0.48 -2.16,-0.48 -1.36,0 -2.24,0.96 -0.84,0.92 -0.84,2.48 l 0,2.48 5.12,0 0,3.36 -5.12,0 0,16.24 -3.68,0 0,-16.24 -3.68,0 0,-3.36 3.68,0 0,-2.84 q 0,-2.92 1.84,-4.72 1.88,-1.8 4.8,-1.8 z" />
      </g>
    </g>
  </g>
</svg>
